<mxfile host="app.diagrams.net" agent="Mozilla/5.0 (Windows NT 10.0; Win64; x64; rv:130.0) Gecko/20100101 Firefox/130.0" version="24.7.14">
  <diagram name="PÃ¡gina-1" id="uZxJci1BhbY7pctlIq7J">
    <mxGraphModel dx="1434" dy="774" grid="1" gridSize="10" guides="1" tooltips="1" connect="1" arrows="1" fold="1" page="1" pageScale="1" pageWidth="827" pageHeight="1169" math="0" shadow="0">
      <root>
        <mxCell id="0" />
        <mxCell id="1" parent="0" />
        <mxCell id="u7JHvNulp4WYWxl5ugOd-1" value="&lt;span class=&quot;nodeLabel&quot;&gt;ReprodutorMusical&lt;/span&gt;" style="swimlane;fontStyle=0;childLayout=stackLayout;horizontal=1;startSize=30;horizontalStack=0;resizeParent=1;resizeParentMax=0;resizeLast=0;collapsible=1;marginBottom=0;whiteSpace=wrap;html=1;" vertex="1" parent="1">
          <mxGeometry x="40" y="440" width="170" height="120" as="geometry" />
        </mxCell>
        <mxCell id="u7JHvNulp4WYWxl5ugOd-2" value="+ &lt;code&gt;tocar() void&lt;br&gt;&lt;/code&gt;" style="text;strokeColor=none;fillColor=none;align=left;verticalAlign=middle;spacingLeft=4;spacingRight=4;overflow=hidden;points=[[0,0.5],[1,0.5]];portConstraint=eastwest;rotatable=0;whiteSpace=wrap;html=1;" vertex="1" parent="u7JHvNulp4WYWxl5ugOd-1">
          <mxGeometry y="30" width="170" height="30" as="geometry" />
        </mxCell>
        <mxCell id="u7JHvNulp4WYWxl5ugOd-3" value="+ &lt;code&gt;pausar() void &lt;br&gt;&lt;/code&gt;" style="text;strokeColor=none;fillColor=none;align=left;verticalAlign=middle;spacingLeft=4;spacingRight=4;overflow=hidden;points=[[0,0.5],[1,0.5]];portConstraint=eastwest;rotatable=0;whiteSpace=wrap;html=1;" vertex="1" parent="u7JHvNulp4WYWxl5ugOd-1">
          <mxGeometry y="60" width="170" height="30" as="geometry" />
        </mxCell>
        <mxCell id="u7JHvNulp4WYWxl5ugOd-4" value="&lt;div&gt;+ &lt;code&gt;selecionarMusica() void&lt;/code&gt;&lt;/div&gt;&lt;div&gt;&lt;code&gt;&lt;br&gt;&lt;/code&gt;&lt;/div&gt;" style="text;strokeColor=none;fillColor=none;align=left;verticalAlign=middle;spacingLeft=4;spacingRight=4;overflow=hidden;points=[[0,0.5],[1,0.5]];portConstraint=eastwest;rotatable=0;whiteSpace=wrap;html=1;" vertex="1" parent="u7JHvNulp4WYWxl5ugOd-1">
          <mxGeometry y="90" width="170" height="30" as="geometry" />
        </mxCell>
        <mxCell id="u7JHvNulp4WYWxl5ugOd-5" value="&lt;span class=&quot;nodeLabel&quot;&gt;NavegadorInternet&lt;/span&gt;" style="swimlane;fontStyle=0;childLayout=stackLayout;horizontal=1;startSize=30;horizontalStack=0;resizeParent=1;resizeParentMax=0;resizeLast=0;collapsible=1;marginBottom=0;whiteSpace=wrap;html=1;" vertex="1" parent="1">
          <mxGeometry x="600" y="440" width="160" height="120" as="geometry" />
        </mxCell>
        <mxCell id="u7JHvNulp4WYWxl5ugOd-6" value="&lt;code&gt;+exibirPagina(String url)&lt;/code&gt;" style="text;strokeColor=none;fillColor=none;align=left;verticalAlign=middle;spacingLeft=4;spacingRight=4;overflow=hidden;points=[[0,0.5],[1,0.5]];portConstraint=eastwest;rotatable=0;whiteSpace=wrap;html=1;" vertex="1" parent="u7JHvNulp4WYWxl5ugOd-5">
          <mxGeometry y="30" width="160" height="30" as="geometry" />
        </mxCell>
        <mxCell id="u7JHvNulp4WYWxl5ugOd-7" value="&lt;code&gt;+adicionarNovaAba() void&lt;br&gt;&lt;/code&gt;" style="text;strokeColor=none;fillColor=none;align=left;verticalAlign=middle;spacingLeft=4;spacingRight=4;overflow=hidden;points=[[0,0.5],[1,0.5]];portConstraint=eastwest;rotatable=0;whiteSpace=wrap;html=1;" vertex="1" parent="u7JHvNulp4WYWxl5ugOd-5">
          <mxGeometry y="60" width="160" height="30" as="geometry" />
        </mxCell>
        <mxCell id="u7JHvNulp4WYWxl5ugOd-8" value="&lt;code&gt;+atualizarPagina() void&lt;br&gt;&lt;/code&gt;" style="text;strokeColor=none;fillColor=none;align=left;verticalAlign=middle;spacingLeft=4;spacingRight=4;overflow=hidden;points=[[0,0.5],[1,0.5]];portConstraint=eastwest;rotatable=0;whiteSpace=wrap;html=1;" vertex="1" parent="u7JHvNulp4WYWxl5ugOd-5">
          <mxGeometry y="90" width="160" height="30" as="geometry" />
        </mxCell>
        <mxCell id="u7JHvNulp4WYWxl5ugOd-13" value="&lt;span class=&quot;nodeLabel&quot;&gt;AparelhoTelefonico&lt;/span&gt;" style="swimlane;fontStyle=0;childLayout=stackLayout;horizontal=1;startSize=30;horizontalStack=0;resizeParent=1;resizeParentMax=0;resizeLast=0;collapsible=1;marginBottom=0;whiteSpace=wrap;html=1;" vertex="1" parent="1">
          <mxGeometry x="334" y="440" width="160" height="120" as="geometry" />
        </mxCell>
        <mxCell id="u7JHvNulp4WYWxl5ugOd-14" value="+&lt;code&gt;ligar(String numero)&lt;/code&gt;" style="text;strokeColor=none;fillColor=none;align=left;verticalAlign=middle;spacingLeft=4;spacingRight=4;overflow=hidden;points=[[0,0.5],[1,0.5]];portConstraint=eastwest;rotatable=0;whiteSpace=wrap;html=1;" vertex="1" parent="u7JHvNulp4WYWxl5ugOd-13">
          <mxGeometry y="30" width="160" height="30" as="geometry" />
        </mxCell>
        <mxCell id="u7JHvNulp4WYWxl5ugOd-15" value="+&lt;code&gt;atender() void&lt;/code&gt;&lt;div&gt;&lt;code&gt;&lt;/code&gt;&lt;/div&gt;" style="text;strokeColor=none;fillColor=none;align=left;verticalAlign=middle;spacingLeft=4;spacingRight=4;overflow=hidden;points=[[0,0.5],[1,0.5]];portConstraint=eastwest;rotatable=0;whiteSpace=wrap;html=1;" vertex="1" parent="u7JHvNulp4WYWxl5ugOd-13">
          <mxGeometry y="60" width="160" height="30" as="geometry" />
        </mxCell>
        <mxCell id="u7JHvNulp4WYWxl5ugOd-16" value="&lt;div&gt;&lt;code&gt;+iniciarCorreioVoz() void&lt;/code&gt;&lt;/div&gt;&lt;div&gt;&lt;code&gt;&lt;/code&gt;&lt;/div&gt;" style="text;strokeColor=none;fillColor=none;align=left;verticalAlign=middle;spacingLeft=4;spacingRight=4;overflow=hidden;points=[[0,0.5],[1,0.5]];portConstraint=eastwest;rotatable=0;whiteSpace=wrap;html=1;" vertex="1" parent="u7JHvNulp4WYWxl5ugOd-13">
          <mxGeometry y="90" width="160" height="30" as="geometry" />
        </mxCell>
        <mxCell id="u7JHvNulp4WYWxl5ugOd-18" style="edgeStyle=orthogonalEdgeStyle;rounded=0;orthogonalLoop=1;jettySize=auto;html=1;entryX=0.5;entryY=0;entryDx=0;entryDy=0;" edge="1" parent="1" source="u7JHvNulp4WYWxl5ugOd-17" target="u7JHvNulp4WYWxl5ugOd-1">
          <mxGeometry relative="1" as="geometry" />
        </mxCell>
        <mxCell id="u7JHvNulp4WYWxl5ugOd-19" style="edgeStyle=orthogonalEdgeStyle;rounded=0;orthogonalLoop=1;jettySize=auto;html=1;entryX=0.5;entryY=0;entryDx=0;entryDy=0;" edge="1" parent="1" source="u7JHvNulp4WYWxl5ugOd-17" target="u7JHvNulp4WYWxl5ugOd-13">
          <mxGeometry relative="1" as="geometry" />
        </mxCell>
        <mxCell id="u7JHvNulp4WYWxl5ugOd-20" style="edgeStyle=orthogonalEdgeStyle;rounded=0;orthogonalLoop=1;jettySize=auto;html=1;entryX=0.5;entryY=0;entryDx=0;entryDy=0;" edge="1" parent="1" source="u7JHvNulp4WYWxl5ugOd-17" target="u7JHvNulp4WYWxl5ugOd-5">
          <mxGeometry relative="1" as="geometry" />
        </mxCell>
        <mxCell id="u7JHvNulp4WYWxl5ugOd-17" value="Iphone" style="rounded=0;whiteSpace=wrap;html=1;" vertex="1" parent="1">
          <mxGeometry x="354" y="280" width="120" height="60" as="geometry" />
        </mxCell>
      </root>
    </mxGraphModel>
  </diagram>
</mxfile>
